# xmcd CD database file
#
# Track frame offsets:
#	150
#	11927
#	26379
#	40034
#	59771
#	75094
#	89178
#	105012
#	128794
#	141528
#	157909
#	174957
#	198122
#
# Disc length: 2880 seconds
#
# Revision: 0
# Processed by: cddbd v1.5.2PL0 Copyright (c) Steve Scherf et al.
# Submitted via: CDex 1.70beta2
#
DISCID=9c0b3e0d
DTITLE=Various Artist - Jazz Temptation - Les Nouvelles Voix du Jazz
DYEAR=2015
DGENRE=Jazz
TTITLE0=Norah Jones - Turn Me On
TTITLE1=Madeleine Peyroux - Don't Wait Too Long
TTITLE2=ALA.NI - Cherry Blossom
TTITLE3=Stacey Kent - You've Got a Friend
TTITLE4=Jamie Cullum - These Are the Days
TTITLE5=Malia - He Ain't Comin' Home No More
TTITLE6=Sarah McKenzie - Quoi, Quoi, Quoi
TTITLE7=Esperanza Spalding - Black Gold
TTITLE8=Laika - Imagination
TTITLE9=Patricia Barber - Easy to Love
TTITLE10=Molly Johnson - Miss Celie's Blues
TTITLE11=Lianne La Havas - Baltimore
TTITLE12=Youn Sun Nah - My Favourite Things
EXTD=YEAR: 2015
EXTT0=
EXTT1=
EXTT2=
EXTT3=
EXTT4=
EXTT5=
EXTT6=
EXTT7=
EXTT8=
EXTT9=
EXTT10=
EXTT11=
EXTT12=
PLAYORDER=
